<mxfile host="Electron" modified="2023-12-06T10:39:06.228Z" agent="Mozilla/5.0 (Windows NT 10.0; Win64; x64) AppleWebKit/537.36 (KHTML, like Gecko) draw.io/22.1.2 Chrome/114.0.5735.289 Electron/25.9.4 Safari/537.36" etag="HyGoR5RF7BrkVLboifBV" version="22.1.2" type="device">
  <diagram name="Página-1" id="BgA2TayV9ybN_B8IneB3">
    <mxGraphModel dx="1098" dy="1170" grid="1" gridSize="10" guides="1" tooltips="1" connect="1" arrows="1" fold="1" page="1" pageScale="1" pageWidth="1169" pageHeight="827" math="0" shadow="0">
      <root>
        <mxCell id="0" />
        <mxCell id="1" parent="0" />
        <mxCell id="ypSLVrjTUjTUyOyDURoA-1" value="Gestor" style="shape=umlLifeline;perimeter=lifelinePerimeter;container=1;collapsible=0;recursiveResize=0;rounded=0;shadow=0;strokeWidth=1;" vertex="1" parent="1">
          <mxGeometry x="120" y="80" width="100" height="520" as="geometry" />
        </mxCell>
        <mxCell id="ypSLVrjTUjTUyOyDURoA-2" value="" style="points=[];perimeter=orthogonalPerimeter;rounded=0;shadow=0;strokeWidth=1;" vertex="1" parent="ypSLVrjTUjTUyOyDURoA-1">
          <mxGeometry x="45" y="60" width="10" height="440" as="geometry" />
        </mxCell>
        <mxCell id="ypSLVrjTUjTUyOyDURoA-3" value="Interfaz de &#xa;usuario" style="shape=umlLifeline;perimeter=lifelinePerimeter;container=1;collapsible=0;recursiveResize=0;rounded=0;shadow=0;strokeWidth=1;" vertex="1" parent="1">
          <mxGeometry x="300" y="80" width="100" height="520" as="geometry" />
        </mxCell>
        <mxCell id="ypSLVrjTUjTUyOyDURoA-4" value="" style="points=[];perimeter=orthogonalPerimeter;rounded=0;shadow=0;strokeWidth=1;" vertex="1" parent="ypSLVrjTUjTUyOyDURoA-3">
          <mxGeometry x="45" y="60" width="10" height="440" as="geometry" />
        </mxCell>
        <mxCell id="ypSLVrjTUjTUyOyDURoA-7" value="Ver reseñas por usuario" style="verticalAlign=bottom;endArrow=block;entryX=0;entryY=0;shadow=0;strokeWidth=1;" edge="1" parent="1">
          <mxGeometry relative="1" as="geometry">
            <mxPoint x="175" y="149.00000000000068" as="sourcePoint" />
            <mxPoint x="345" y="149.00000000000068" as="targetPoint" />
          </mxGeometry>
        </mxCell>
        <mxCell id="ypSLVrjTUjTUyOyDURoA-12" value="Backend" style="shape=umlLifeline;perimeter=lifelinePerimeter;container=1;collapsible=0;recursiveResize=0;rounded=0;shadow=0;strokeWidth=1;" vertex="1" parent="1">
          <mxGeometry x="450" y="80" width="130" height="520" as="geometry" />
        </mxCell>
        <mxCell id="ypSLVrjTUjTUyOyDURoA-13" value="" style="points=[];perimeter=orthogonalPerimeter;rounded=0;shadow=0;strokeWidth=1;" vertex="1" parent="ypSLVrjTUjTUyOyDURoA-12">
          <mxGeometry x="61" y="60" width="10" height="440" as="geometry" />
        </mxCell>
        <mxCell id="ypSLVrjTUjTUyOyDURoA-15" value="Servicio de estadísticas" style="shape=umlLifeline;perimeter=lifelinePerimeter;container=1;collapsible=0;recursiveResize=0;rounded=0;shadow=0;strokeWidth=1;" vertex="1" parent="1">
          <mxGeometry x="620" y="80" width="130" height="520" as="geometry" />
        </mxCell>
        <mxCell id="ypSLVrjTUjTUyOyDURoA-16" value="" style="points=[];perimeter=orthogonalPerimeter;rounded=0;shadow=0;strokeWidth=1;" vertex="1" parent="ypSLVrjTUjTUyOyDURoA-15">
          <mxGeometry x="58" y="60" width="10" height="440" as="geometry" />
        </mxCell>
        <mxCell id="ypSLVrjTUjTUyOyDURoA-19" value="Datos de usuario" style="verticalAlign=bottom;endArrow=block;entryX=0;entryY=0;shadow=0;strokeWidth=1;" edge="1" parent="1">
          <mxGeometry relative="1" as="geometry">
            <mxPoint x="360" y="150" as="sourcePoint" />
            <mxPoint x="505" y="150.0000000000001" as="targetPoint" />
          </mxGeometry>
        </mxCell>
        <mxCell id="ypSLVrjTUjTUyOyDURoA-20" value="" style="endArrow=classic;html=1;rounded=1;" edge="1" parent="1">
          <mxGeometry width="50" height="50" relative="1" as="geometry">
            <mxPoint x="522" y="151" as="sourcePoint" />
            <mxPoint x="540" y="175" as="targetPoint" />
            <Array as="points">
              <mxPoint x="557" y="151" />
              <mxPoint x="587" y="151" />
              <mxPoint x="587" y="175" />
            </Array>
          </mxGeometry>
        </mxCell>
        <mxCell id="ypSLVrjTUjTUyOyDURoA-21" value="&lt;font style=&quot;font-size: 11px;&quot;&gt;Leer base &lt;br&gt;de datos&lt;/font&gt;" style="text;html=1;align=center;verticalAlign=middle;resizable=0;points=[];autosize=1;strokeColor=none;fillColor=none;" vertex="1" parent="1">
          <mxGeometry x="591" y="143" width="70" height="40" as="geometry" />
        </mxCell>
        <mxCell id="ypSLVrjTUjTUyOyDURoA-22" value="Lista de usuarios con reseñas" style="verticalAlign=bottom;endArrow=block;shadow=0;strokeWidth=1;dashed=1;" edge="1" parent="1" target="ypSLVrjTUjTUyOyDURoA-1">
          <mxGeometry relative="1" as="geometry">
            <mxPoint x="509" y="178" as="sourcePoint" />
            <mxPoint x="359" y="178" as="targetPoint" />
          </mxGeometry>
        </mxCell>
        <mxCell id="ypSLVrjTUjTUyOyDURoA-30" value="Seleccionar usuario" style="verticalAlign=bottom;endArrow=block;entryX=0;entryY=0;shadow=0;strokeWidth=1;" edge="1" parent="1">
          <mxGeometry relative="1" as="geometry">
            <mxPoint x="175" y="211.0000000000001" as="sourcePoint" />
            <mxPoint x="345" y="211.0000000000001" as="targetPoint" />
          </mxGeometry>
        </mxCell>
        <mxCell id="ypSLVrjTUjTUyOyDURoA-31" value="Datos usuario" style="verticalAlign=bottom;endArrow=block;shadow=0;strokeWidth=1;rounded=0;" edge="1" parent="1">
          <mxGeometry relative="1" as="geometry">
            <mxPoint x="360" y="212" as="sourcePoint" />
            <mxPoint x="510" y="211" as="targetPoint" />
          </mxGeometry>
        </mxCell>
        <mxCell id="ypSLVrjTUjTUyOyDURoA-32" value="" style="endArrow=classic;html=1;rounded=1;" edge="1" parent="1">
          <mxGeometry width="50" height="50" relative="1" as="geometry">
            <mxPoint x="522" y="210" as="sourcePoint" />
            <mxPoint x="540" y="234" as="targetPoint" />
            <Array as="points">
              <mxPoint x="557" y="210" />
              <mxPoint x="587" y="210" />
              <mxPoint x="587" y="234" />
            </Array>
          </mxGeometry>
        </mxCell>
        <mxCell id="ypSLVrjTUjTUyOyDURoA-33" value="&lt;span style=&quot;font-size: 11px;&quot;&gt;Leer reseñas&lt;/span&gt;" style="text;html=1;align=center;verticalAlign=middle;resizable=0;points=[];autosize=1;strokeColor=none;fillColor=none;" vertex="1" parent="1">
          <mxGeometry x="584" y="205" width="90" height="30" as="geometry" />
        </mxCell>
        <mxCell id="ypSLVrjTUjTUyOyDURoA-34" value="Información reseñas" style="verticalAlign=bottom;endArrow=block;shadow=0;strokeWidth=1;dashed=1;" edge="1" parent="1">
          <mxGeometry relative="1" as="geometry">
            <mxPoint x="510" y="240" as="sourcePoint" />
            <mxPoint x="180" y="240" as="targetPoint" />
          </mxGeometry>
        </mxCell>
        <mxCell id="ypSLVrjTUjTUyOyDURoA-40" value="LIsta reseñas" style="verticalAlign=top;endArrow=block;shadow=0;strokeWidth=1;rounded=0;spacing=-1;labelPosition=center;verticalLabelPosition=bottom;align=center;" edge="1" parent="1">
          <mxGeometry relative="1" as="geometry">
            <mxPoint x="521" y="240" as="sourcePoint" />
            <mxPoint x="671" y="239" as="targetPoint" />
          </mxGeometry>
        </mxCell>
        <mxCell id="ypSLVrjTUjTUyOyDURoA-41" value="" style="endArrow=classic;html=1;rounded=1;entryX=0.95;entryY=0.907;entryDx=0;entryDy=0;entryPerimeter=0;" edge="1" parent="1">
          <mxGeometry width="50" height="50" relative="1" as="geometry">
            <mxPoint x="689" y="240" as="sourcePoint" />
            <mxPoint x="704.5" y="265.1199999999999" as="targetPoint" />
            <Array as="points">
              <mxPoint x="724" y="240" />
              <mxPoint x="754" y="240" />
              <mxPoint x="754" y="264" />
            </Array>
          </mxGeometry>
        </mxCell>
        <mxCell id="ypSLVrjTUjTUyOyDURoA-42" value="&lt;span style=&quot;font-size: 11px;&quot;&gt;Calcular resultados&lt;/span&gt;" style="text;html=1;align=center;verticalAlign=middle;resizable=0;points=[];autosize=1;strokeColor=none;fillColor=none;" vertex="1" parent="1">
          <mxGeometry x="747" y="235" width="120" height="30" as="geometry" />
        </mxCell>
        <mxCell id="ypSLVrjTUjTUyOyDURoA-44" value="Información estadísticas" style="verticalAlign=top;endArrow=block;shadow=0;strokeWidth=1;dashed=1;labelPosition=center;verticalLabelPosition=bottom;align=center;spacing=-1;" edge="1" parent="1" target="ypSLVrjTUjTUyOyDURoA-3">
          <mxGeometry relative="1" as="geometry">
            <mxPoint x="672" y="269" as="sourcePoint" />
            <mxPoint x="522" y="269" as="targetPoint" />
          </mxGeometry>
        </mxCell>
        <mxCell id="ypSLVrjTUjTUyOyDURoA-46" value="Gráficas y estadísticas" style="verticalAlign=bottom;endArrow=block;shadow=0;strokeWidth=1;dashed=1;" edge="1" parent="1">
          <mxGeometry relative="1" as="geometry">
            <mxPoint x="345" y="270" as="sourcePoint" />
            <mxPoint x="176.5" y="270" as="targetPoint" />
          </mxGeometry>
        </mxCell>
        <mxCell id="ypSLVrjTUjTUyOyDURoA-47" value="Ver reseñas por  producto" style="verticalAlign=bottom;endArrow=block;entryX=0;entryY=0;shadow=0;strokeWidth=1;" edge="1" parent="1">
          <mxGeometry relative="1" as="geometry">
            <mxPoint x="177" y="315.0000000000007" as="sourcePoint" />
            <mxPoint x="347" y="315.0000000000007" as="targetPoint" />
          </mxGeometry>
        </mxCell>
        <mxCell id="ypSLVrjTUjTUyOyDURoA-49" value="Seleccionar producto" style="verticalAlign=bottom;endArrow=block;entryX=0;entryY=0;shadow=0;strokeWidth=1;" edge="1" parent="1">
          <mxGeometry relative="1" as="geometry">
            <mxPoint x="177" y="377.0000000000001" as="sourcePoint" />
            <mxPoint x="347" y="377.0000000000001" as="targetPoint" />
          </mxGeometry>
        </mxCell>
        <mxCell id="ypSLVrjTUjTUyOyDURoA-50" value="Lista reseñas + info" style="verticalAlign=bottom;endArrow=block;shadow=0;strokeWidth=1;dashed=1;" edge="1" parent="1">
          <mxGeometry relative="1" as="geometry">
            <mxPoint x="346" y="406" as="sourcePoint" />
            <mxPoint x="177.5" y="406" as="targetPoint" />
          </mxGeometry>
        </mxCell>
        <mxCell id="ypSLVrjTUjTUyOyDURoA-51" value="Gráficas y estadísticas" style="verticalAlign=bottom;endArrow=block;shadow=0;strokeWidth=1;dashed=1;" edge="1" parent="1">
          <mxGeometry relative="1" as="geometry">
            <mxPoint x="347" y="436" as="sourcePoint" />
            <mxPoint x="178.5" y="436" as="targetPoint" />
          </mxGeometry>
        </mxCell>
        <mxCell id="ypSLVrjTUjTUyOyDURoA-52" value="Datos de usuario" style="verticalAlign=bottom;endArrow=block;entryX=0;entryY=0;shadow=0;strokeWidth=1;" edge="1" parent="1">
          <mxGeometry relative="1" as="geometry">
            <mxPoint x="361" y="318" as="sourcePoint" />
            <mxPoint x="506" y="318.0000000000001" as="targetPoint" />
          </mxGeometry>
        </mxCell>
        <mxCell id="ypSLVrjTUjTUyOyDURoA-53" value="" style="endArrow=classic;html=1;rounded=1;" edge="1" parent="1">
          <mxGeometry width="50" height="50" relative="1" as="geometry">
            <mxPoint x="523" y="319" as="sourcePoint" />
            <mxPoint x="541" y="343" as="targetPoint" />
            <Array as="points">
              <mxPoint x="558" y="319" />
              <mxPoint x="588" y="319" />
              <mxPoint x="588" y="343" />
            </Array>
          </mxGeometry>
        </mxCell>
        <mxCell id="ypSLVrjTUjTUyOyDURoA-54" value="&lt;font style=&quot;font-size: 11px;&quot;&gt;Leer base &lt;br&gt;de datos&lt;/font&gt;" style="text;html=1;align=center;verticalAlign=middle;resizable=0;points=[];autosize=1;strokeColor=none;fillColor=none;" vertex="1" parent="1">
          <mxGeometry x="592" y="311" width="70" height="40" as="geometry" />
        </mxCell>
        <mxCell id="ypSLVrjTUjTUyOyDURoA-55" value="Lista de productos con reseñas" style="verticalAlign=bottom;endArrow=block;shadow=0;strokeWidth=1;dashed=1;" edge="1" parent="1">
          <mxGeometry relative="1" as="geometry">
            <mxPoint x="510" y="346" as="sourcePoint" />
            <mxPoint x="180" y="347" as="targetPoint" />
          </mxGeometry>
        </mxCell>
        <mxCell id="ypSLVrjTUjTUyOyDURoA-56" value="Datos producto" style="verticalAlign=bottom;endArrow=block;shadow=0;strokeWidth=1;rounded=0;" edge="1" parent="1">
          <mxGeometry relative="1" as="geometry">
            <mxPoint x="361" y="380" as="sourcePoint" />
            <mxPoint x="511" y="379" as="targetPoint" />
          </mxGeometry>
        </mxCell>
        <mxCell id="ypSLVrjTUjTUyOyDURoA-57" value="" style="endArrow=classic;html=1;rounded=1;" edge="1" parent="1">
          <mxGeometry width="50" height="50" relative="1" as="geometry">
            <mxPoint x="523" y="378" as="sourcePoint" />
            <mxPoint x="541" y="402" as="targetPoint" />
            <Array as="points">
              <mxPoint x="558" y="378" />
              <mxPoint x="588" y="378" />
              <mxPoint x="588" y="402" />
            </Array>
          </mxGeometry>
        </mxCell>
        <mxCell id="ypSLVrjTUjTUyOyDURoA-58" value="&lt;span style=&quot;font-size: 11px;&quot;&gt;Leer reseñas&lt;/span&gt;" style="text;html=1;align=center;verticalAlign=middle;resizable=0;points=[];autosize=1;strokeColor=none;fillColor=none;" vertex="1" parent="1">
          <mxGeometry x="585" y="373" width="90" height="30" as="geometry" />
        </mxCell>
        <mxCell id="ypSLVrjTUjTUyOyDURoA-59" value="Información reseñas" style="verticalAlign=bottom;endArrow=block;shadow=0;strokeWidth=1;dashed=1;" edge="1" parent="1">
          <mxGeometry relative="1" as="geometry">
            <mxPoint x="511" y="408" as="sourcePoint" />
            <mxPoint x="361" y="408" as="targetPoint" />
          </mxGeometry>
        </mxCell>
        <mxCell id="ypSLVrjTUjTUyOyDURoA-60" value="LIsta reseñas" style="verticalAlign=top;endArrow=block;shadow=0;strokeWidth=1;rounded=0;spacing=-1;labelPosition=center;verticalLabelPosition=bottom;align=center;" edge="1" parent="1">
          <mxGeometry relative="1" as="geometry">
            <mxPoint x="522" y="408" as="sourcePoint" />
            <mxPoint x="672" y="407" as="targetPoint" />
          </mxGeometry>
        </mxCell>
        <mxCell id="ypSLVrjTUjTUyOyDURoA-61" value="" style="endArrow=classic;html=1;rounded=1;entryX=0.95;entryY=0.907;entryDx=0;entryDy=0;entryPerimeter=0;" edge="1" parent="1">
          <mxGeometry width="50" height="50" relative="1" as="geometry">
            <mxPoint x="690" y="408" as="sourcePoint" />
            <mxPoint x="705.5" y="433.1199999999999" as="targetPoint" />
            <Array as="points">
              <mxPoint x="725" y="408" />
              <mxPoint x="755" y="408" />
              <mxPoint x="755" y="432" />
            </Array>
          </mxGeometry>
        </mxCell>
        <mxCell id="ypSLVrjTUjTUyOyDURoA-62" value="&lt;span style=&quot;font-size: 11px;&quot;&gt;Calcular resultados&lt;/span&gt;" style="text;html=1;align=center;verticalAlign=middle;resizable=0;points=[];autosize=1;strokeColor=none;fillColor=none;" vertex="1" parent="1">
          <mxGeometry x="748" y="403" width="120" height="30" as="geometry" />
        </mxCell>
        <mxCell id="ypSLVrjTUjTUyOyDURoA-63" value="Información estadísticas" style="verticalAlign=top;endArrow=block;shadow=0;strokeWidth=1;dashed=1;labelPosition=center;verticalLabelPosition=bottom;align=center;spacing=-1;entryX=1.2;entryY=0.464;entryDx=0;entryDy=0;entryPerimeter=0;" edge="1" parent="1">
          <mxGeometry relative="1" as="geometry">
            <mxPoint x="673" y="437" as="sourcePoint" />
            <mxPoint x="358" y="438" as="targetPoint" />
          </mxGeometry>
        </mxCell>
        <mxCell id="ypSLVrjTUjTUyOyDURoA-66" value="Ver reseñas por  texto" style="verticalAlign=bottom;endArrow=block;entryX=0;entryY=0;shadow=0;strokeWidth=1;" edge="1" parent="1">
          <mxGeometry relative="1" as="geometry">
            <mxPoint x="177" y="485.0000000000007" as="sourcePoint" />
            <mxPoint x="347" y="485.0000000000007" as="targetPoint" />
          </mxGeometry>
        </mxCell>
        <mxCell id="ypSLVrjTUjTUyOyDURoA-69" value="Gráficas y estadísticas" style="verticalAlign=bottom;endArrow=block;shadow=0;strokeWidth=1;dashed=1;" edge="1" parent="1">
          <mxGeometry relative="1" as="geometry">
            <mxPoint x="345" y="551" as="sourcePoint" />
            <mxPoint x="176.5" y="551" as="targetPoint" />
          </mxGeometry>
        </mxCell>
        <mxCell id="ypSLVrjTUjTUyOyDURoA-70" value="Texto a buscar" style="verticalAlign=bottom;endArrow=block;entryX=0;entryY=0;shadow=0;strokeWidth=1;" edge="1" parent="1">
          <mxGeometry relative="1" as="geometry">
            <mxPoint x="361" y="488" as="sourcePoint" />
            <mxPoint x="506" y="488.0000000000001" as="targetPoint" />
          </mxGeometry>
        </mxCell>
        <mxCell id="ypSLVrjTUjTUyOyDURoA-71" value="" style="endArrow=classic;html=1;rounded=1;" edge="1" parent="1">
          <mxGeometry width="50" height="50" relative="1" as="geometry">
            <mxPoint x="523" y="489" as="sourcePoint" />
            <mxPoint x="541" y="513" as="targetPoint" />
            <Array as="points">
              <mxPoint x="558" y="489" />
              <mxPoint x="588" y="489" />
              <mxPoint x="588" y="513" />
            </Array>
          </mxGeometry>
        </mxCell>
        <mxCell id="ypSLVrjTUjTUyOyDURoA-72" value="&lt;font style=&quot;font-size: 11px;&quot;&gt;Leer base &lt;br&gt;de datos&lt;/font&gt;" style="text;html=1;align=center;verticalAlign=middle;resizable=0;points=[];autosize=1;strokeColor=none;fillColor=none;" vertex="1" parent="1">
          <mxGeometry x="592" y="481" width="70" height="40" as="geometry" />
        </mxCell>
        <mxCell id="ypSLVrjTUjTUyOyDURoA-73" value="Lista de reseñas" style="verticalAlign=bottom;endArrow=block;shadow=0;strokeWidth=1;dashed=1;" edge="1" parent="1">
          <mxGeometry relative="1" as="geometry">
            <mxPoint x="510" y="516" as="sourcePoint" />
            <mxPoint x="180" y="517" as="targetPoint" />
          </mxGeometry>
        </mxCell>
        <mxCell id="ypSLVrjTUjTUyOyDURoA-78" value="LIsta reseñas" style="verticalAlign=top;endArrow=block;shadow=0;strokeWidth=1;rounded=0;spacing=-1;labelPosition=center;verticalLabelPosition=bottom;align=center;" edge="1" parent="1">
          <mxGeometry relative="1" as="geometry">
            <mxPoint x="521" y="520" as="sourcePoint" />
            <mxPoint x="671" y="519" as="targetPoint" />
          </mxGeometry>
        </mxCell>
        <mxCell id="ypSLVrjTUjTUyOyDURoA-79" value="" style="endArrow=classic;html=1;rounded=1;entryX=0.95;entryY=0.907;entryDx=0;entryDy=0;entryPerimeter=0;" edge="1" parent="1">
          <mxGeometry width="50" height="50" relative="1" as="geometry">
            <mxPoint x="690" y="521" as="sourcePoint" />
            <mxPoint x="705.5" y="546.1199999999999" as="targetPoint" />
            <Array as="points">
              <mxPoint x="725" y="521" />
              <mxPoint x="755" y="521" />
              <mxPoint x="755" y="545" />
            </Array>
          </mxGeometry>
        </mxCell>
        <mxCell id="ypSLVrjTUjTUyOyDURoA-80" value="&lt;span style=&quot;font-size: 11px;&quot;&gt;Calcular resultados&lt;/span&gt;" style="text;html=1;align=center;verticalAlign=middle;resizable=0;points=[];autosize=1;strokeColor=none;fillColor=none;" vertex="1" parent="1">
          <mxGeometry x="748" y="516" width="120" height="30" as="geometry" />
        </mxCell>
        <mxCell id="ypSLVrjTUjTUyOyDURoA-81" value="Información estadísticas" style="verticalAlign=top;endArrow=block;shadow=0;strokeWidth=1;dashed=1;labelPosition=center;verticalLabelPosition=bottom;align=center;spacing=-1;entryX=1.2;entryY=0.464;entryDx=0;entryDy=0;entryPerimeter=0;" edge="1" parent="1">
          <mxGeometry relative="1" as="geometry">
            <mxPoint x="673" y="549" as="sourcePoint" />
            <mxPoint x="358" y="550" as="targetPoint" />
          </mxGeometry>
        </mxCell>
      </root>
    </mxGraphModel>
  </diagram>
</mxfile>
